PathFileType	4	(X/Y/Z)	Walk6.trc
DataRate	CameraRate	NumFrames	NumMarkers	Units	OrigDataRate	OrigDataStartFrame	OrigNumFrames
200.000000	200.000000	9	61	mm	200.000000	379	449
Frame#	Times		LFHD		RFHD		CLAV		STRN		LASI		RASI		RACR1		RUA1		RFA1		RWRU		RCAR		LACR1		LUA1		LFA1		LWRU		LCAR		RTH3		RTH2		RTH4		RTB3		RTB4		LTH1		LTH3		LTH2		LTH4		LLFC		LTB1		LTB2		LTB4		RTH1		RTB1		RMT5		RMFC		RToe		RMT1		RMMAL		LElbow		RTB2		LBHD		RLFC		LWRR		RLMAL		RCAL		RWRR		RElbow		T10		RBack		RPSI		RBHD		LTB3		LMFC		LPSI		LToe		LLMAL		C7		RElbowM		LCAL		LElbowM		LMT5		LMT1		LMMAL
			X1	Y1	Z1	X2	Y2	Z2	X3	Y3	Z3	X4	Y4	Z4	X5	Y5	Z5	X6	Y6	Z6	X7	Y7	Z7	X8	Y8	Z8	X9	Y9	Z9	X10	Y10	Z10	X11	Y11	Z11	X12	Y12	Z12	X13	Y13	Z13	X14	Y14	Z14	X15	Y15	Z15	X16	Y16	Z16	X17	Y17	Z17	X18	Y18	Z18	X19	Y19	Z19	X20	Y20	Z20	X21	Y21	Z21	X22	Y22	Z22	X23	Y23	Z23	X24	Y24	Z24	X25	Y25	Z25	X26	Y26	Z26	X27	Y27	Z27	X28	Y28	Z28	X29	Y29	Z29	X30	Y30	Z30	X31	Y31	Z31	X32	Y32	Z32	X33	Y33	Z33	X34	Y34	Z34	X35	Y35	Z35	X36	Y36	Z36	X37	Y37	Z37	X38	Y38	Z38	X39	Y39	Z39	X40	Y40	Z40	X41	Y41	Z41	X42	Y42	Z42	X43	Y43	Z43	X44	Y44	Z44	X45	Y45	Z45	X46	Y46	Z46	X47	Y47	Z47	X48	Y48	Z48	X49	Y49	Z49	X50	Y50	Z50	X51	Y51	Z51	X52	Y52	Z52	X53	Y53	Z53	X54	Y54	Z54	X55	Y55	Z55	X56	Y56	Z56	X57	Y57	Z57	X58	Y58	Z58	X59	Y59	Z59	X60	Y60	Z60	X61	Y61	Z61

379	1.895	813.84	1576.6	-33.276	808.4	1579.3	66.169	783.82	1300.1	18.318	806.86	1165.5	22.489	766.29	902.26	-85.996	762.74	898.72	162.07	714.37	1336.2	183.28	709.83	1166	235.99	793.13	892.7	280.87	882.77	811.59	237.84	898.89	743.84	282.65	710.34	1344.9	-136.41	677.44	1173.5	-197.3	613.18	893.91	-249.49	640.53	770.31	-246.07	591.95	713.95	-276.1	706.02	556.01	203.48	760.42	644.11	189.29	708.89	638.56	215.43	468.02	220.99	145.22	541.42	265.34	153.11	747.94	736.11	-155.55	794.95	574.87	-116.16	824.74	675.79	-121.33	770.55	654.31	-137.62	836.1	442.59	-91.601	871.16	345.53	-21.115	853.87	257.13	-77.042	860.44	259.86	-16.198	714.99	724.62	231.54	615.05	312.3	158.27	335.94	88.519	163.54	665.49	401.93	56.471	383.74	27.629	116.87	362.4	67.183	83.429	370.97	200.69	81.191	623.38	1027.3	-218.3	514.07	305.17	190.9	674.78	1506.2	-61.13	680.04	407.33	185.14	572.34	783.21	-239.85	346.07	206.99	159.72	310.45	243.47	116.37	833.47	780.34	273.47	707.61	998.74	268.96	593.02	1192	26.723	592	1279.3	94.711	589.48	939.61	88.046	669.32	1516.7	82.891	854.92	175.76	-9.5936	809.75	432.62	37.611	587.37	946.42	-11.882	997.83	25.824	-2.8414	806.77	63.292	-56.574	670.65	1401.7	15.895	678.1	991.04	194.52	747.69	35.584	-18.682	610.17	1008.9	-144.43	912	23.41	-62.876	939.94	29.452	22.3	812.27	82.527	24.332
380	1.9	820.83	1577.3	-33.814	815.38	1580.2	65.626	790.56	1300.7	18.116	813.35	1166.1	22.308	772.97	903.42	-86.51	768.89	899.43	161.76	721.09	1337.1	182.9	716.57	1166.8	235.46	797.97	892.47	280.46	886.68	810.11	237.76	901.82	742.23	282.68	717.48	1345.7	-136.66	685.85	1174.1	-197.84	624.98	893.88	-251	653.93	770.71	-247.34	606.51	713.85	-278.05	717.27	556.21	202.92	770.26	645.26	188.73	718.77	638.81	214.86	480.52	223.1	144.32	554.46	266.65	152.09	754.09	736.91	-156.08	799.56	575.24	-116.79	830.27	675.82	-121.86	775.92	654.89	-138.23	839.46	442.33	-92.224	873.81	345	-21.761	855.53	256.7	-77.535	862.23	259.42	-16.713	723.34	725.03	230.93	628.63	312.81	157.14	346.74	92.23	163.07	680.38	401.73	55.434	393.4	29.373	117.08	373.17	70.149	83.366	383.1	204.07	80.592	633.13	1027.5	-219.7	527.77	306.41	190.39	681.8	1506.9	-61.607	693.91	407.4	184.43	585.5	782.68	-241.8	358.4	210.57	159.17	323.07	247.58	115.86	836.86	779.55	273.28	713.77	999.49	268.19	599.65	1193	26.302	598.65	1280.3	94.335	595.81	940.14	87.587	676.28	1517.6	82.444	855.88	175.39	-9.998	813.18	432.66	36.958	593.87	947.19	-12.259	997.72	25.911	-3.0506	806.71	63.251	-56.772	677.52	1402.6	15.512	684.66	992.01	193.52	747.58	35.589	-18.802	619.51	1008.9	-145.87	911.9	23.454	-63.079	939.84	29.628	22.17	812.34	82.622	24.153
381	1.905	827.82	1578	-34.333	822.36	1581.1	65.101	797.22	1301.5	17.958	819.8	1166.8	22.189	779.62	904.56	-86.982	775	900.24	161.49	727.71	1338	182.56	723.26	1167.6	234.97	802.75	892.29	280.09	890.48	808.65	237.69	904.63	740.64	282.71	724.57	1346.5	-136.88	694.21	1174.8	-198.34	636.86	893.91	-252.48	667.46	771.2	-248.56	621.24	713.86	-279.93	728.36	556.62	202.4	779.97	646.57	188.24	728.52	639.27	214.36	493.3	225.19	143.38	567.7	268.05	151.03	760.13	737.69	-156.57	804	575.57	-117.39	835.67	675.81	-122.33	781.15	655.44	-138.81	842.58	442.04	-92.819	876.29	344.46	-22.421	857.02	256.27	-78.031	863.91	258.98	-17.238	731.55	725.6	230.39	642.32	313.49	155.96	358.46	95.659	162.53	695.12	401.9	54.42	404.28	31.27	117.08	384.85	73.019	83.155	395.54	207.28	79.932	642.88	1027.8	-221.06	541.6	307.67	189.85	688.78	1507.6	-62.05	707.77	407.7	183.73	598.79	782.2	-243.69	371.03	213.87	158.56	335.78	251.2	115.33	840.15	778.8	273.14	719.92	1000.3	267.46	606.24	1194	25.888	605.25	1281.3	93.965	602.11	940.73	87.071	683.22	1518.5	82.026	856.79	175.02	-10.417	816.31	432.66	36.326	600.36	948.01	-12.696	997.62	26.023	-3.2619	806.64	63.202	-56.95	684.31	1403.5	15.163	691.16	993.02	192.6	747.48	35.592	-18.904	628.87	1009	-147.3	911.8	23.502	-63.254	939.75	29.813	22.046	812.43	82.701	23.998
382	1.91	834.81	1578.7	-34.832	829.34	1581.9	64.595	803.83	1302.3	17.839	826.22	1167.5	22.128	786.25	905.67	-87.413	781.09	901.15	161.26	734.23	1339	182.26	729.89	1168.5	234.52	807.47	892.15	279.76	894.17	807.21	237.65	907.33	739.08	282.75	731.59	1347.4	-137.06	702.51	1175.5	-198.8	648.8	894.01	-253.9	681.1	771.82	-249.73	636.12	713.98	-281.76	739.3	557.24	201.9	789.56	648.03	187.83	738.13	639.92	213.91	506.34	227.23	142.4	581.1	269.51	149.94	766.07	738.44	-157	808.28	575.87	-117.95	840.94	675.76	-122.75	786.26	655.96	-139.35	845.48	441.73	-93.38	878.62	343.93	-23.084	858.37	255.85	-78.523	865.5	258.54	-17.764	739.63	726.32	229.91	656.12	314.34	154.77	371.06	98.766	161.92	709.68	402.43	53.436	416.36	33.267	116.86	397.41	75.758	82.796	408.28	210.31	79.222	652.65	1028.1	-222.38	555.55	308.95	189.27	695.72	1508.4	-62.462	721.6	408.24	183.03	612.21	781.79	-245.5	383.94	216.86	157.9	348.57	254.31	114.77	843.35	778.11	273.04	726.07	1001.1	266.79	612.79	1194.9	25.477	611.78	1282.4	93.597	608.39	941.4	86.504	690.13	1519.6	81.637	857.65	174.66	-10.845	819.17	432.64	35.723	606.85	948.87	-13.19	997.53	26.145	-3.4697	806.57	63.147	-57.106	691.03	1404.4	14.846	697.61	994.06	191.77	747.39	35.597	-18.989	638.24	1009	-148.71	911.71	23.552	-63.403	939.67	29.995	21.933	812.53	82.765	23.869
383	1.915	841.8	1579.4	-35.308	836.33	1582.8	64.112	810.38	1303.1	17.755	832.6	1168.3	22.121	792.86	906.74	-87.801	787.16	902.17	161.07	740.64	1340	182	736.46	1169.5	234.12	812.14	892.06	279.46	897.76	805.82	237.62	909.92	737.56	282.81	738.55	1348.3	-137.21	710.77	1176.3	-199.23	660.81	894.2	-255.27	694.84	772.55	-250.83	651.16	714.23	-283.51	750.1	558.05	201.44	799.03	649.65	187.5	747.6	640.75	213.52	519.63	229.21	141.41	594.67	271.02	148.84	771.93	739.17	-157.38	812.42	576.14	-118.47	846.11	675.67	-123.11	791.26	656.47	-139.84	848.19	441.41	-93.899	880.81	343.4	-23.737	859.59	255.43	-79.003	867	258.11	-18.283	747.57	727.17	229.49	670	315.36	153.57	384.49	101.52	161.25	724.06	403.29	52.492	429.58	35.312	116.42	410.82	78.332	82.296	421.31	213.11	78.468	662.41	1028.5	-223.65	569.59	310.27	188.66	702.62	1509.3	-62.842	735.4	409.02	182.35	625.76	781.45	-247.24	397.12	219.52	157.19	361.44	256.9	114.21	846.47	777.48	272.99	732.2	1002	266.16	619.3	1196	25.066	618.26	1283.4	93.228	614.66	942.12	85.891	697.01	1520.8	81.275	858.48	174.3	-11.272	821.78	432.59	35.154	613.33	949.78	-13.736	997.45	26.265	-3.6698	806.5	63.09	-57.238	697.67	1405.3	14.559	704	995.13	191.02	747.31	35.608	-19.058	647.62	1009.1	-150.1	911.63	23.598	-63.527	939.6	30.169	21.832	812.66	82.816	23.765
384	1.92	848.78	1580.1	-35.758	843.31	1583.8	63.654	816.87	1304	17.699	838.95	1169.2	22.163	799.45	907.76	-88.149	793.22	903.28	160.91	746.96	1341	181.77	742.95	1170.4	233.76	816.76	892.02	279.21	901.24	804.46	237.61	912.41	736.09	282.87	745.44	1349.2	-137.33	718.97	1177.1	-199.64	672.86	894.46	-256.59	708.68	773.4	-251.88	666.32	714.61	-285.19	760.76	559.05	201	808.38	651.4	187.25	756.95	641.75	213.17	533.14	231.11	140.42	608.39	272.58	147.75	777.7	739.87	-157.72	816.45	576.4	-118.94	851.18	675.55	-123.41	796.18	656.95	-140.29	850.73	441.08	-94.374	882.86	342.88	-24.369	860.7	255.03	-79.464	868.41	257.7	-18.785	755.39	728.14	229.11	683.96	316.53	152.39	398.71	103.9	160.52	738.25	404.45	51.594	443.88	37.354	115.8	425.03	80.706	81.669	434.62	215.67	77.677	672.17	1028.9	-224.87	583.7	311.61	188.01	709.48	1510.3	-63.19	749.16	410.03	181.68	639.42	781.19	-248.89	410.56	221.82	156.44	374.4	258.96	113.63	849.51	776.92	272.98	738.32	1002.9	265.59	625.78	1197	24.652	624.69	1284.4	92.855	620.92	942.91	85.241	703.86	1522	80.942	859.27	173.96	-11.69	824.17	432.52	34.623	619.81	950.72	-14.328	997.38	26.376	-3.8593	806.43	63.034	-57.345	704.25	1406.3	14.3	710.32	996.22	190.35	747.24	35.628	-19.111	657.03	1009.3	-151.46	911.55	23.638	-63.63	939.55	30.329	21.743	812.8	82.857	23.684
385	1.925	855.76	1580.8	-36.181	850.3	1584.7	63.224	823.31	1305	17.666	845.28	1170.1	22.249	806.02	908.74	-88.456	799.29	904.48	160.76	753.19	1342.1	181.57	749.38	1171.4	233.44	821.33	892.04	278.99	904.62	803.15	237.62	914.82	734.68	282.95	752.27	1350.1	-137.43	727.12	1178	-200.01	684.96	894.81	-257.84	722.6	774.39	-252.86	681.62	715.12	-286.8	771.3	560.23	200.58	817.62	653.29	187.08	766.17	642.91	212.88	546.88	232.9	139.44	622.26	274.15	146.69	783.4	740.54	-158	820.39	576.63	-119.37	856.17	675.42	-123.64	801.01	657.42	-140.69	853.13	440.76	-94.803	884.79	342.38	-24.971	861.72	254.65	-79.899	869.75	257.3	-19.263	763.09	729.23	228.77	697.99	317.84	151.25	413.64	105.88	159.74	752.28	405.87	50.748	459.17	39.349	115.01	439.98	82.853	80.934	448.18	217.94	76.857	681.93	1029.3	-226.04	597.86	312.98	187.32	716.31	1511.3	-63.508	762.88	411.25	181.04	653.19	781.02	-250.46	424.25	223.75	155.67	387.44	260.49	113.04	852.48	776.42	273.04	744.43	1003.8	265.07	632.23	1198	24.232	631.07	1285.5	92.475	627.18	943.74	84.563	710.69	1523.3	80.637	860.02	173.63	-12.09	826.38	432.43	34.134	626.29	951.69	-14.957	997.33	26.473	-4.0363	806.37	62.982	-57.429	710.77	1407.3	14.065	716.56	997.34	189.77	747.18	35.658	-19.149	666.44	1009.4	-152.79	911.49	23.672	-63.714	939.51	30.471	21.668	812.97	82.893	23.624
386	1.93	862.73	1581.5	-36.574	857.29	1585.6	62.824	829.71	1305.9	17.651	851.59	1171	22.372	812.58	909.67	-88.728	805.36	905.75	160.62	759.34	1343.1	181.4	755.73	1172.4	233.15	825.84	892.1	278.81	907.91	801.9	237.65	917.15	733.34	283.06	759.04	1351.1	-137.51	735.22	1178.9	-200.37	697.1	895.25	-259.03	736.6	775.51	-253.77	697.02	715.78	-288.31	781.73	561.56	200.18	826.77	655.3	186.98	775.27	644.2	212.63	560.82	234.57	138.49	636.26	275.72	145.66	789.04	741.19	-158.22	824.25	576.86	-119.76	861.07	675.27	-123.8	805.78	657.88	-141.05	855.41	440.45	-95.183	886.6	341.91	-25.532	862.67	254.29	-80.302	871.01	256.92	-19.708	770.69	730.41	228.47	712.08	319.27	150.14	429.21	107.47	158.91	766.15	407.53	49.957	475.35	41.255	114.09	455.62	84.747	80.112	462.01	219.9	76.012	691.68	1029.8	-227.16	612.06	314.36	186.59	723.1	1512.4	-63.797	776.53	412.69	180.42	667.05	780.94	-251.93	438.17	225.29	154.87	400.59	261.49	112.42	855.39	776	273.15	750.51	1004.8	264.6	638.65	1199.1	23.803	637.41	1286.5	92.088	633.44	944.63	83.867	717.49	1524.7	80.363	860.74	173.32	-12.464	828.42	432.33	33.687	632.77	952.68	-15.616	997.29	26.552	-4.1997	806.32	62.938	-57.49	717.22	1408.3	13.852	722.72	998.46	189.27	747.14	35.699	-19.174	675.87	1009.7	-154.08	911.44	23.697	-63.78	939.49	30.595	21.605	813.14	82.927	23.582
387	1.935	869.7	1582.3	-36.935	864.27	1586.5	62.455	836.05	1307	17.647	857.89	1172	22.526	819.14	910.55	-88.967	811.44	907.08	160.49	765.4	1344.2	181.25	762.02	1173.5	232.91	830.31	892.22	278.67	911.12	800.69	237.71	919.41	732.06	283.19	765.74	1352.2	-137.57	743.27	1179.9	-200.7	709.26	895.77	-260.15	750.66	776.77	-254.61	712.52	716.59	-289.75	792.07	563.03	199.8	835.83	657.44	186.96	784.28	645.61	212.42	574.96	236.09	137.55	650.38	277.28	144.67	794.62	741.81	-158.41	828.03	577.07	-120.11	865.91	675.1	-123.9	810.5	658.33	-141.38	857.58	440.16	-95.518	888.3	341.46	-26.044	863.55	253.96	-80.667	872.2	256.57	-20.114	778.18	731.67	228.2	726.21	320.81	149.09	445.35	108.67	158.06	779.87	409.38	49.224	492.33	43.039	113.09	471.89	86.371	79.228	476.08	221.52	75.144	701.41	1030.3	-228.22	626.27	315.73	185.83	729.85	1513.5	-64.057	790.12	414.32	179.84	681.01	780.96	-253.32	452.32	226.43	154.05	413.85	261.96	111.78	858.25	775.64	273.32	756.56	1005.8	264.18	645.05	1200.1	23.366	643.71	1287.5	91.694	639.71	945.57	83.162	724.26	1526.1	80.118	861.42	173.03	-12.804	830.32	432.21	33.282	639.25	953.7	-16.294	997.27	26.611	-4.3488	806.27	62.904	-57.53	723.62	1409.4	13.659	728.79	999.6	188.85	747.1	35.753	-19.186	685.32	1009.9	-155.33	911.4	23.715	-63.832	939.48	30.701	21.555	813.32	82.963	23.554
